<svg width="63" height="78" viewBox="0 0 63 78" fill="none" xmlns="http://www.w3.org/2000/svg">
<ellipse cx="21.5001" cy="19.5" rx="20" ry="19.5" fill="#F99B09"/>
<path d="M41.0001 19.5C41.0001 29.9816 32.2816 38.5 21.5001 38.5C10.7185 38.5 2.00006 29.9816 2.00006 19.5C2.00006 9.01845 10.7185 0.5 21.5001 0.5C32.2816 0.5 41.0001 9.01845 41.0001 19.5Z" stroke="black"/>
<path d="M32.0286 13.823C32.0286 13.823 35.3395 2.76476 43.4841 11.1263C43.4841 11.1263 61.4081 9.89279 59.5076 12.3519C59.5076 12.3519 44.9749 10.6008 42.5615 15.6427C40.4805 19.6427 45.5566 25.823 37.1016 34.448C37.1016 34.448 33.0696 38.823 26.8256 38.823C26.8256 38.823 4.82562 41.823 1.82562 38.823" fill="#FBFCFF"/>
<path d="M1.87698 37.7731C1.87698 37.7731 26.752 14.8981 34.752 15.8981C42.752 16.8981 36.752 29.1481 29.252 33.5231C21.752 37.8981 1.87698 37.7731 1.87698 37.7731Z" fill="#FBFCFF"/>
<path d="M24.377 46.5229L28.752 44.8979" stroke="black" stroke-miterlimit="10" stroke-linecap="round" stroke-linejoin="round"/>
<path d="M34.602 20.3681C34.4106 20.3171 34.2069 20.3415 34.033 20.4365C33.8592 20.5314 33.7285 20.6895 33.668 20.8781C32.983 23.0451 30.602 28.0151 23.18 30.9611L23.186 30.9701C23.186 30.9701 22.424 31.1731 22.743 31.9971C23.019 32.7101 23.723 32.5531 23.91 32.4971C32.212 29.1691 34.692 23.3851 35.357 21.1571C35.416 20.9591 35.342 20.5091 34.602 20.3671V20.3681Z" fill="#FBFCFF"/>
<path d="M23.377 31.7729C23.377 31.7729 31.752 29.8979 34.752 19.8979" stroke="black" stroke-miterlimit="10" stroke-linecap="round" stroke-linejoin="round"/>
<path d="M32.0281 13.8232C32.0281 13.8232 36.3479 3.24745 43.4756 10.6264C43.4756 10.6264 56.4903 11.4037 60.4983 11.8351C49 12.0322 45.8357 11.3277 42.5612 15.6428C40.5612 19.6428 45.752 24.8981 37.627 33.5231C37.627 33.5231 33.752 37.8981 27.752 37.8981L26.752 39.8981L28.752 44.8981L34.752 45.8981" stroke="black" stroke-miterlimit="10" stroke-linecap="round" stroke-linejoin="round"/>
<path d="M1.87698 37.7731C1.87698 37.7731 26.752 14.8981 34.752 15.8981C42.752 16.8981 36.752 29.1481 29.252 33.5231C21.752 37.8981 1.87698 37.7731 1.87698 37.7731Z" stroke="black" stroke-miterlimit="10" stroke-linecap="round" stroke-linejoin="round"/>
<path d="M61.3688 47.619C61.0514 47.9873 60.6008 48.2144 60.1161 48.2505L6.00003 52.5L5.50009 49L60.1151 44.5944C60.5047 44.6232 60.8776 44.776 61.177 45.0341C61.5453 45.3515 61.7724 45.8021 61.8085 46.2868C61.8443 46.7716 61.6862 47.2508 61.3688 47.619Z" fill="#C4C4C4"/>
<path d="M61.3688 47.619C61.0514 47.9873 60.6008 48.2144 60.1161 48.2505L6.00003 52.5L5.50009 49L60.1151 44.5944C60.5047 44.6232 60.8776 44.776 61.177 45.0341C61.5453 45.3515 61.7724 45.8021 61.8085 46.2868C61.8443 46.7716 61.6862 47.2508 61.3688 47.619Z" fill="black"/>
<path d="M59.8449 44.5944C59.9354 44.5877 60.0257 44.5878 60.1151 44.5944M60.1161 48.2505C60.6008 48.2144 61.0514 47.9873 61.3688 47.619C61.6862 47.2508 61.8443 46.7716 61.8085 46.2868M60.1161 48.2505L6.00003 52.5L5.50009 49L60.1151 44.5944M60.1161 48.2505C60.3331 48.2335 61.3348 46.9343 61.8085 46.2868M61.8085 46.2868C61.7724 45.8021 61.5453 45.3515 61.177 45.0341C60.8776 44.776 60.5047 44.6232 60.1151 44.5944" stroke="black" stroke-linecap="round" stroke-linejoin="round"/>
<path d="M1.00006 51.5L5.50009 48.9999L6.00003 52.5L1.00006 51.5Z" fill="white" stroke="white" stroke-linecap="round" stroke-linejoin="round"/>
</svg>
