<svg width="37" height="46" viewBox="0 0 37 46" fill="none" xmlns="http://www.w3.org/2000/svg">
<ellipse cx="12.7906" cy="11.4958" rx="11.7906" ry="11.4958" fill="#F99B09"/>
<path d="M24.2864 11.4958C24.2864 17.675 19.1467 22.6969 12.7906 22.6969C6.43455 22.6969 1.29477 17.675 1.29477 11.4958C1.29477 5.31665 6.43455 0.294765 12.7906 0.294765C19.1467 0.294765 24.2864 5.31665 24.2864 11.4958Z" stroke="black" stroke-width="0.58953"/>
<path d="M18.998 8.14892C18.998 8.14892 20.9498 1.62973 25.7513 6.55909C25.7513 6.55909 36.3181 5.83192 35.1976 7.28162C35.1976 7.28162 26.6302 6.24931 25.2074 9.22169C23.9806 11.5798 26.9731 15.2233 21.9887 20.308C21.9887 20.308 19.6117 22.8872 15.9306 22.8872C15.9306 22.8872 2.96097 24.6558 1.19238 22.8872" fill="#FBFCFF"/>
<path d="M1.22266 22.268C1.22266 22.268 15.8872 8.78252 20.6035 9.37205C25.3197 9.96158 21.7825 17.1833 17.361 19.7625C12.9396 22.3417 1.22266 22.268 1.22266 22.268Z" fill="#FBFCFF"/>
<path d="M14.4868 27.4265L17.066 26.4685" stroke="black" stroke-width="0.58953" stroke-miterlimit="10" stroke-linecap="round" stroke-linejoin="round"/>
<path d="M20.5153 12.0073C20.4024 11.9772 20.2824 11.9917 20.1799 12.0476C20.0774 12.1036 20.0003 12.1968 19.9647 12.308C19.5608 13.5855 18.1572 16.5155 13.7817 18.2522L13.7852 18.2575C13.7852 18.2575 13.336 18.3772 13.524 18.863C13.6867 19.2833 14.1018 19.1907 14.212 19.1577C19.1063 17.1958 20.5683 13.7859 20.9604 12.4725C20.9952 12.3557 20.9515 12.0904 20.5153 12.0067V12.0073Z" fill="#FBFCFF"/>
<path d="M13.8977 18.7311C13.8977 18.7311 18.835 17.6258 20.6036 11.7305" stroke="black" stroke-width="0.58953" stroke-miterlimit="10" stroke-linecap="round" stroke-linejoin="round"/>
<path d="M18.9977 8.14891C18.9977 8.14891 21.5443 1.91421 25.7463 6.26429C25.7463 6.26429 33.4188 6.72258 35.7817 6.97689C29.0031 7.09307 27.1376 6.67778 25.2072 9.22162C24.0282 11.5797 27.0883 14.6779 22.2983 19.7626C22.2983 19.7626 20.0139 22.3418 16.4767 22.3418L15.8872 23.5209L17.0663 26.4685L20.6034 27.0581" stroke="black" stroke-width="0.58953" stroke-miterlimit="10" stroke-linecap="round" stroke-linejoin="round"/>
<path d="M1.22266 22.268C1.22266 22.268 15.8872 8.78252 20.6035 9.37205C25.3197 9.96158 21.7825 17.1833 17.361 19.7625C12.9396 22.3417 1.22266 22.268 1.22266 22.268Z" stroke="black" stroke-width="0.58953" stroke-miterlimit="10" stroke-linecap="round" stroke-linejoin="round"/>
<path d="M30.1666 28.2554L3.94777 30.0661L1.88439 29.1818L3.94777 27.8556L35.3962 25.7003C35.682 25.6791 35.9645 25.7724 36.1815 25.9595C36.3986 26.1466 36.5325 26.4122 36.5538 26.698C36.5749 26.9838 36.4817 27.2663 36.2946 27.4834C36.1075 27.7004 35.8418 27.8343 35.5561 27.8556L30.1666 28.2554Z" fill="black"/>
<path d="M3.94777 30.0661L30.1666 28.2554L35.5561 27.8556M3.94777 30.0661L1.88439 29.1818L3.94777 27.8556L35.3962 25.7003C35.682 25.6791 35.9645 25.7724 36.1815 25.9595C36.3986 26.1466 36.5325 26.4122 36.5538 26.698C36.5749 26.9838 36.4817 27.2663 36.2946 27.4834C36.1075 27.7004 35.8418 27.8343 35.5561 27.8556M3.94777 30.0661L35.5561 27.8556" stroke="black" stroke-width="0.58953" stroke-linecap="round" stroke-linejoin="round"/>
</svg>
